<?xml version="1.0" encoding="UTF-8"?>
<svg xmlns="http://www.w3.org/2000/svg" viewBox="0 0 2050.7234 1704.1">
  <defs>
    <style>
      .cls-1 {
        letter-spacing: -.016em;
      }

      .cls-2, .cls-3 {
        stroke: #ff00e6;
        stroke-width: 6px;
      }

      .cls-2, .cls-3, .cls-4 {
        stroke-miterlimit: 10;
      }

      .cls-2, .cls-4 {
        fill: none;
      }

      .cls-5 {
        fill: #d3d3d3;
      }

      .cls-3 {
        fill: #ff00e6;
      }

      .cls-4 {
        stroke: #fff;
        stroke-width: 3px;
      }

      .cls-6 {
        letter-spacing: -.055em;
      }

      .cls-7 {
        fill: #828282;
      }

      .cls-8 {
        font-size: 25.7814px;
      }

      .cls-8, .cls-9 {
        fill: #fff;
        font-family: Aeonik-Medium, Aeonik;
        font-weight: 500;
      }

      .cls-10 {
        fill: #353535;
      }

      .cls-9 {
        font-size: 38.4838px;
      }
    </style>
  </defs>
  <g id="Laag_10" data-name="Laag 10">
    <rect class="cls-10" x=".6446" y="-.8631" width="2056.12" height="1720.1042"/>
  </g>
  <g id="Floor_4" data-name="Floor 4">
    <polygon class="cls-7" points="898.4378 397.36 803.252 439.0038 1059.6334 987.1829 1001.3993 1013.7788 1043.7907 1106.5988 1103.0719 1079.5247 1189.6325 1273.4922 1277.1978 1232.2185 940.2052 489.4232 1064.9188 407.7524 1175.2631 380.0463 1592.5007 1317.4891 1054.1062 1573.3009 518.0927 404.2005 1065.0129 153.4465 1087.8178 304.4992 898.4378 397.36"/>
    <polygon class="cls-7" points="1065.0129 153.4465 1175.2631 380.0463 940.2052 484.666 886.6551 372.2757 1000.8573 258.9196 1065.0129 153.4465"/>
    <polygon class="cls-5" points="803.252 439.0038 1059.6334 987.1829 1001.3993 1013.7788 1043.7907 1106.5988 1098.4564 1079.5247 1189.6325 1273.4922 1277.1978 1232.2185 901.5873 397.36 803.252 439.0038"/>
  </g>
  <g id="All_floors" data-name="All floors">
    <polygon class="cls-2" points="515.7117 405.2921 1049.1486 1573.3009 1592.5007 1317.4891 1065.0129 153.4465 740.8259 302.0809 515.7117 405.2921"/>
    <polyline class="cls-2" points="740.8259 302.0809 803.252 439.0038 898.4378 397.36 834.9651 258.9196"/>
    <polyline class="cls-2" points="1277.1978 1232.2185 940.2052 489.4232 898.4378 397.36"/>
    <polyline class="cls-2" points="940.2052 489.4232 1080.0529 425.1225 1100.7076 468.7493 1189.6325 428.4528"/>
    <line class="cls-2" x1="1017.2325" y1="659.2059" x2="1242.3565" y2="544.8025"/>
    <line class="cls-2" x1="1103.0719" y1="848.4122" x2="1329.4674" y2="737.0359"/>
    <line class="cls-2" x1="1189.6325" y1="1039.208" x2="1419.2467" y2="935.1579"/>
    <polyline class="cls-2" points="1504.6443 1123.6105 1189.6325 1273.4922 961.7441 1381.9208"/>
    <polyline class="cls-2" points="1189.6325 1273.4922 1146.3522 1176.5084 1103.0719 1079.5247 871.8635 1185.119"/>
    <line class="cls-2" x1="915.72" y1="1281.1469" x2="1146.3522" y2="1174.4346"/>
    <line class="cls-2" x1="1043.7907" y1="1106.5988" x2="1000.8573" y2="1012.5921"/>
    <polyline class="cls-2" points="829.4721 1092.2991 1059.6334 987.1829 803.252 439.0038"/>
    <line class="cls-2" x1="787.4072" y1="1000.1943" x2="1015.7673" y2="893.3911"/>
    <line class="cls-2" x1="740.8259" y1="893.3911" x2="966.4207" y2="787.8813"/>
    <line class="cls-2" x1="695.7013" y1="799.3957" x2="922.2506" y2="693.4394"/>
    <line class="cls-2" x1="609.3235" y1="610.2638" x2="834.1674" y2="505.1051"/>
  </g>
  <g id="Icons1_and_text" data-name="Icons1 and text">
    <g>
      <text class="cls-8" transform="translate(796.3066 331.4394)"><tspan class="cls-6" x="0" y="0">T</tspan><tspan class="cls-1" x="13.8447" y="0">r</tspan><tspan x="22.5586" y="0">ap</tspan></text>
      <polyline class="cls-4" points="800.2288 385.7788 800.2288 373.8905 817.0886 373.8905 817.0886 360.4892 832.6514 360.4892 832.6514 350.0269 849.7274 350.0269"/>
    </g>
    <g>
      <text class="cls-8" transform="translate(858.8418 1000.1943)"><tspan class="cls-6" x="0" y="0">T</tspan><tspan class="cls-1" x="13.8447" y="0">r</tspan><tspan x="22.5586" y="0">ap</tspan></text>
      <polyline class="cls-4" points="862.7633 1054.534 862.7633 1042.6457 879.6231 1042.6457 879.6231 1029.2444 895.1859 1029.2444 895.1859 1018.7821 912.2619 1018.7821"/>
    </g>
    <text class="cls-9" transform="translate(969.3301 972.2949)"><tspan x="0" y="0">Lift</tspan></text>
    <line class="cls-3" x1="926.4641" y1="935.1579" x2="966.4207" y2="1029.7538"/>
  </g>
</svg>