<?xml version="1.0" encoding="UTF-8"?>
<svg xmlns="http://www.w3.org/2000/svg" viewBox="0 0 1986.13 1704.1">
  <defs>
    <style>
      .cls-1, .cls-2, .cls-3, .cls-4, .cls-5, .cls-6, .cls-7, .cls-8, .cls-9, .cls-10, .cls-11, .cls-12, .cls-13 {
        font-family: Aeonik-Medium, Aeonik;
        font-weight: 500;
      }

      .cls-1, .cls-3, .cls-8, .cls-14 {
        fill: #828282;
      }

      .cls-1, .cls-7 {
        font-size: 20.3px;
      }

      .cls-2 {
        font-size: 12px;
      }

      .cls-2, .cls-4, .cls-5, .cls-6, .cls-7, .cls-9, .cls-10, .cls-11, .cls-12, .cls-13 {
        fill: #fff;
      }

      .cls-15 {
        letter-spacing: 0em;
      }

      .cls-16 {
        letter-spacing: -.02em;
      }

      .cls-17 {
        letter-spacing: 0em;
      }

      .cls-3 {
        font-size: 67.6px;
      }

      .cls-4 {
        font-size: 24.46px;
      }

      .cls-18 {
        letter-spacing: -.02em;
      }

      .cls-19 {
        letter-spacing: -.06em;
      }

      .cls-20 {
        stroke: #828282;
      }

      .cls-20, .cls-21, .cls-22 {
        fill: none;
        stroke-miterlimit: 10;
      }

      .cls-20, .cls-22 {
        stroke-width: 3px;
      }

      .cls-5 {
        font-size: 14.88px;
      }

      .cls-6 {
        font-size: 25.12px;
      }

      .cls-23 {
        letter-spacing: 0em;
      }

      .cls-24 {
        letter-spacing: -.02em;
      }

      .cls-25 {
        letter-spacing: 0em;
      }

      .cls-8 {
        font-size: 35.69px;
      }

      .cls-21 {
        stroke: #ff00e6;
        stroke-width: 6px;
      }

      .cls-9 {
        font-size: 16.46px;
      }

      .cls-26 {
        letter-spacing: -.02em;
      }

      .cls-27 {
        letter-spacing: -.03em;
      }

      .cls-28 {
        letter-spacing: -.03em;
      }

      .cls-29 {
        letter-spacing: -.02em;
      }

      .cls-30 {
        letter-spacing: -.02em;
      }

      .cls-31 {
        fill: #d3d3d3;
      }

      .cls-32 {
        letter-spacing: -.05em;
      }

      .cls-22 {
        stroke: #fff;
      }

      .cls-10 {
        font-size: 21.22px;
      }

      .cls-33 {
        letter-spacing: -.05em;
      }

      .cls-34 {
        letter-spacing: 0em;
      }

      .cls-11 {
        font-size: 21.01px;
      }

      .cls-35 {
        fill: #353535;
      }

      .cls-36 {
        letter-spacing: -.02em;
      }

      .cls-37 {
        letter-spacing: -.05em;
      }

      .cls-12 {
        font-size: 13.85px;
      }

      .cls-38 {
        letter-spacing: -.06em;
      }

      .cls-13 {
        font-size: 14.19px;
      }
    </style>
  </defs>
  <g id="Zwart">
    <rect class="cls-35" x="-12.97" y="-13.3" width="1999.1" height="1717.4"/>
  </g>
  <g id="Floor_1" data-name="Floor 1">
    <g id="Kleuren_achtergrond" data-name="Kleuren achtergrond">
      <rect class="cls-31" x="625.19" y="872.13" width="204.07" height="252.49"/>
      <rect class="cls-31" x="683.56" y="1107.76" width="94.85" height="44.56"/>
      <rect class="cls-31" x="829.26" y="989.95" width="640.37" height="31.66"/>
      <rect class="cls-31" x="1466.53" y="988.79" width="107.27" height="71.63"/>
      <rect class="cls-31" x="1577.12" y="867.4" width="55.93" height="165.45"/>
      <rect class="cls-31" x="1564.57" y="988.79" width="35.82" height="35.82"/>
      <polygon class="cls-31" points="1469.88 824.73 1469.88 867.4 1633.05 867.4 1636.73 829.53 1660.77 818.63 1577.12 634.04 1673.88 589.61 1696.35 633.89 1711.65 628.82 1855.68 557.82 1789.62 415.98 1681.08 466.53 1588.64 268.04 1545.15 288.46 1661.12 535.49 1548.42 586.99 1506.39 495.15 1462.39 517.34 1579.74 774.09 1469.88 824.73"/>
      <polygon class="cls-31" points="894.32 574.63 894.65 620.76 1341.97 620.76 1345.03 632.25 1487.12 566.38 1462.39 517.34 1327.47 579 1251.04 574.79 894.32 574.63"/>
      <polygon class="cls-31" points="625.18 600.17 625.19 872.13 894.65 872.13 894.32 574.63 707.42 574.63 707.42 461.61 894.65 461.61 897.2 195.4 858.9 195.4 858.9 229.61 731.76 229.61 731.76 191.83 631.16 191.83 631.16 214.91 646.48 214.91 646.48 246.98 631.16 246.98 631.16 367.91 646.48 367.91 646.48 401.19 631.16 401.19 631.16 459.4 646.48 459.41 646.48 514.55 571.42 514.56 571.42 499.74 535.16 499.74 535.16 514.55 512.69 514.55 512.69 567.66 324.27 570.89 324.27 514.55 229.29 514.55 229.29 541.61 212.95 541.61 211.93 600.17 625.18 600.17"/>
      <polygon class="cls-31" points="152.69 969.87 152.69 1031.32 222.14 1031.32 222.14 1078 264.01 1078 264.01 1031.32 353.34 1031.32 356.43 1018.04 408.01 1018.04 408.01 1025.19 625.19 1025.19 625.18 971.58 328.83 969.87 328.61 939.4 288.01 939.4 288.01 971.57 258.54 971.57 258.54 600.17 222.14 603.25 222.14 971.57 152.69 969.87"/>
      <polygon class="cls-14" points="829.26 1021.61 829.26 1137.97 1633.03 1137.97 1633.03 1192.17 1806.65 1192.17 1806.65 989.95 1806.65 867.4 1633.05 867.4 1633.05 1027.61 1577.12 1032.85 1573.8 1060.42 1466.53 1060.42 1469.63 1021.61 829.26 1021.61"/>
      <polygon class="cls-14" points="829 899.06 829.26 989.95 1577.12 989.95 1577.12 867.4 1469.88 867.4 1469.88 899.06 829 899.06"/>
      <polygon class="cls-14" points="1487.12 566.38 1579.74 774.09 1439.16 838.1 1345.03 632.25 1487.12 566.38"/>
      <polygon class="cls-14" points="1577.12 634.04 1660.77 818.63 1922.52 700.94 1855.68 557.82 1696.35 633.89 1673.88 589.61 1577.12 634.04"/>
      <polygon class="cls-14" points="1397.12 256.17 1548.42 586.99 1661.12 535.49 1545.15 288.46 1588.64 268.04 1681.08 466.53 1789.62 415.98 1659.08 135.66 1397.12 256.17"/>
      <polygon class="cls-14" points="707.42 461.61 707.42 574.63 1259.76 574.79 1259.76 306.72 1213.8 306.72 1213.8 138.21 897.2 138.21 894.65 461.61 707.42 461.61"/>
      <polygon class="cls-14" points="465.71 138.21 465.71 514.55 535.16 514.55 535.16 499.74 571.42 499.74 571.42 514.56 646.48 514.55 646.48 459.41 631.16 459.4 631.16 401.19 646.48 401.19 646.48 367.91 631.16 367.91 631.16 246.98 646.48 246.98 646.48 214.91 631.16 214.91 631.16 191.83 731.76 191.83 731.76 229.61 858.9 229.61 858.9 195.4 897.2 195.4 897.2 138.21 465.71 138.21"/>
      <polygon class="cls-14" points="512.69 514.55 512.69 567.66 324.27 570.89 324.27 514.55 512.69 514.55"/>
      <polygon class="cls-14" points="625.18 604.79 625.18 971.58 328.83 969.87 328.61 939.4 288.01 939.4 288.01 971.57 258.54 971.57 258.54 600.17 625.18 600.17 625.18 604.79"/>
      <polygon class="cls-14" points="70.48 541.61 70.48 661.1 222.14 661.1 222.14 603.25 211.93 600.17 212.95 541.61 70.48 541.61"/>
      <polygon class="cls-14" points="222.14 667.08 222.14 971.57 63.33 969.87 63.33 860.59 138.56 862.81 138.56 661.1 222.14 661.1 222.14 667.08"/>
      <polygon class="cls-14" points="63.33 1135.49 152.69 1135.49 152.69 1154.89 222.14 1152.32 222.14 1137.97 625.18 1137.97 625.19 1025.19 408.01 1025.19 408.01 1018.04 356.43 1018.04 353.34 1031.32 264.01 1031.32 264.01 1078 222.14 1078 222.14 1031.32 152.69 1031.32 152.69 965.3 63.33 969.87 63.33 1135.49"/>
      <rect class="cls-14" x="69.97" y="1219.74" width="288" height="309.45"/>
      <polygon class="cls-14" points="1206.65 1301.39 1206.65 1569.53 1664.69 1569.53 1664.69 1304 1206.65 1301.39"/>
      <path class="cls-31" d="M1206.65,1412.76h458.04v48.37h-185.36v12.4h-43.66v-14.81h-229.02l2.52-45.59s-2.49-.37-2.52-.37Z"/>
      <path class="cls-31" d="M252.27,1529.19v-308.92h105.7v81.54h-73.02v44.06h71.48v50.92h-71.48v49.68h73.02v82.72s-106.27.57-105.7,0Z"/>
    </g>
    <g id="Laag_6" data-name="Laag 6">
      <polyline class="cls-35" points="356.43 661.1 356.43 863.25 625.19 863.25 625.19 661.1 576.52 661.1 576.52 677.44 408.01 677.44 408.01 661.1 356.43 661.1"/>
    </g>
    <g id="Laag_1" data-name="Laag 1">
      <line class="cls-21" x1="524.95" y1="1025.19" x2="524.95" y2="1137.97"/>
      <line class="cls-21" x1="528.52" y1="863.25" x2="528.52" y2="971.57"/>
      <path class="cls-21" d="M683.56,1122.62v-16.51h94.86v17.51s51.56.97,50.59,0v-251.49h-203.82v250.03s58.37,1.92,58.37.46Z"/>
      <path class="cls-21" d="M625.18,872.13v-9.32s-270.28,1.53-268.75,0v108.77h268.75"/>
      <polyline class="cls-21" points="683.56 1123.62 683.56 1152.32 778.41 1152.32 778.41 1123.62"/>
      <polyline class="cls-21" points="625.18 1025.19 408.01 1025.19 408.01 1018.04 356.43 1018.04 356.43 1137.97 625.18 1137.97 625.18 1122.16"/>
      <line class="cls-21" x1="576.52" y1="862.81" x2="576.52" y2="971.57"/>
      <line class="cls-21" x1="123.93" y1="1029.44" x2="63.33" y2="1029.44"/>
      <polyline class="cls-21" points="408.01 1025.19 408.01 1088.51 408.01 1135.49"/>
      <line class="cls-21" x1="408.01" y1="1088.51" x2="356.43" y2="1088.51"/>
      <polyline class="cls-21" points="356.43 1031.32 264.01 1031.32 264.01 1078 356.43 1078"/>
      <line class="cls-21" x1="222.14" y1="1078" x2="264.01" y2="1078"/>
      <line class="cls-21" x1="222.14" y1="1137.97" x2="356.43" y2="1137.97"/>
      <polyline class="cls-21" points="1344.04 630.38 1341.97 620.76 894.65 620.76 894.65 872.13 829 872.13"/>
      <path class="cls-21" d="M222.14,1031.32v123.57h-69.45v-123.57s68.68-.77,69.45,0Z"/>
      <line class="cls-21" x1="222.14" y1="1110.98" x2="152.69" y2="1110.98"/>
      <polyline class="cls-21" points="152.69 1031.32 152.69 969.87 63.33 969.87 63.33 1135.49 152.69 1135.49"/>
      <line class="cls-21" x1="63.33" y1="1081.87" x2="152.69" y2="1081.87"/>
      <line class="cls-21" x1="123.93" y1="969.87" x2="123.93" y2="1081.87"/>
      <polyline class="cls-21" points="138.56 661.1 222.14 661.1 259.67 661.1 356.43 661.1 356.43 600.17"/>
      <polyline class="cls-21" points="152.69 969.87 222.14 969.87 222.14 861.61 222.14 600.17 70.14 600.17 70.14 661.1 138.56 661.1 138.56 860.59 63.33 860.59 63.33 969.87"/>
      <line class="cls-21" x1="138.56" y1="860.59" x2="222.14" y2="860.59"/>
      <polyline class="cls-21" points="829.01 899.06 1469.63 899.06 1469.63 867.4 1806.65 867.4 1806.65 1192.17 1633.03 1192.17 1633.03 1137.97 829.01 1137.97 829.01 1123.62"/>
      <polyline class="cls-21" points="1573.8 1029.78 1633.05 1029.78 1633.05 1141.03"/>
      <polyline class="cls-21" points="829.01 1021.61 1469.63 1021.61 1469.63 1060.42 1573.8 1060.42 1573.8 1137.97"/>
      <line class="cls-21" x1="1573.8" y1="1027.61" x2="1573.8" y2="1060.42"/>
      <polyline class="cls-21" points="1633.05 1032.85 1633.05 989.95 1633.05 867.4 1634.05 830.64 1661.12 819.4 1598.2 680.56 1577.12 634.04 1673.88 589.61 1696.35 636.08 1599.17 681.26"/>
      <line class="cls-21" x1="1806.65" y1="989.95" x2="1634.05" y2="989.95"/>
      <polyline class="cls-21" points="1577.12 867.4 1577.12 989.95 829.01 989.95"/>
      <line class="cls-21" x1="942.14" y1="899.06" x2="942.14" y2="989.95"/>
      <line class="cls-21" x1="982.48" y1="1021.61" x2="982.48" y2="1137.97"/>
      <line class="cls-21" x1="1047.84" y1="899.06" x2="1047.84" y2="989.95"/>
      <line class="cls-21" x1="1103.76" y1="899.06" x2="1103.76" y2="989.95"/>
      <line class="cls-21" x1="1157.37" y1="899.06" x2="1157.37" y2="989.95"/>
      <line class="cls-21" x1="1256.95" y1="899.06" x2="1256.95" y2="989.95"/>
      <line class="cls-21" x1="1311.33" y1="899.06" x2="1311.33" y2="989.95"/>
      <line class="cls-21" x1="1368.78" y1="899.06" x2="1368.78" y2="989.95"/>
      <line class="cls-21" x1="1419.33" y1="899.06" x2="1419.33" y2="986.12"/>
      <polyline class="cls-21" points="1439.25 989.95 1439.25 959.32 1469.88 959.32 1469.88 899.06 1469.88 989.95"/>
      <polygon class="cls-21" points="1392.52 735.66 1439.25 838.3 1581.71 773.19 1487.12 566.38 1345.03 632.25 1392.52 735.66"/>
      <line class="cls-21" x1="947.76" y1="1021.61" x2="947.76" y2="1137.97"/>
      <line class="cls-21" x1="1098.39" y1="1021.61" x2="1098.39" y2="1138.81"/>
      <line class="cls-21" x1="1256.95" y1="1021.61" x2="1256.95" y2="1137.97"/>
      <line class="cls-21" x1="1365.46" y1="1021.61" x2="1365.46" y2="1137.97"/>
      <line class="cls-21" x1="1419.33" y1="1021.61" x2="1419.33" y2="1137.97"/>
      <polyline class="cls-21" points="1661.12 819.4 1922.52 700.94 1856.69 560 1696.35 636.08"/>
      <polyline class="cls-21" points="1815.17 749.59 1781.12 677.95 1749.32 610.95"/>
      <polyline class="cls-21" points="1856.69 560 1659.08 135.66 1397.12 256.17 1506.39 495.15 1325.63 577.87 1259.76 577.64 1259.76 306.72 1213.8 306.72 1213.8 138.21 465.71 138.21 465.71 514.55 229.29 514.55 229.29 541.61 212.95 541.61 70.48 541.61 70.48 600.17"/>
      <line class="cls-21" x1="211.93" y1="600.17" x2="212.95" y2="541.61"/>
      <polyline class="cls-21" points="138.56 541.61 138.56 574.81 212.95 574.81"/>
      <polyline class="cls-21" points="465.71 459.4 535.16 459.4 535.16 514.55 512.69 514.55"/>
      <polyline class="cls-21" points="324.27 514.55 324.27 567.66 512.69 567.66 512.69 514.55 465.71 514.55"/>
      <polyline class="cls-21" points="222.14 600.17 625.18 600.17 625.18 862.81"/>
      <path class="cls-21" d="M259.67,600.1s-1.91,370.32-.77,371.47h29.11v-32.17h40.6v30.47h27.83"/>
      <polyline class="cls-21" points="356.43 862.81 356.43 661.1 408.01 661.1 408.01 677.44 576.52 677.44 576.52 661.1 625.18 661.1"/>
      <line class="cls-21" x1="259.09" y1="767.06" x2="356.43" y2="767.06"/>
      <polyline class="cls-21" points="258.54 862.81 307.49 862.81 356.44 862.81"/>
      <line class="cls-21" x1="307.49" y1="939.4" x2="307.49" y2="862.81"/>
      <line class="cls-21" x1="258.54" y1="939.4" x2="356.44" y2="939.4"/>
      <line class="cls-21" x1="408.01" y1="862.81" x2="408.01" y2="969.87"/>
      <line class="cls-21" x1="451.93" y1="600.17" x2="451.93" y2="677.44"/>
      <line class="cls-21" x1="408.01" y1="600.17" x2="408.01" y2="661.1"/>
      <polyline class="cls-21" points="631.16 138.21 631.16 459.4 571.42 459.4 535.16 459.4"/>
      <path class="cls-21" d="M894.65,620.76s.51-46.98-.34-46.13h-186.89v-113.02h187.39l-.49,113.02"/>
      <line class="cls-21" x1="832.01" y1="514.57" x2="894.8" y2="514.57"/>
      <polyline class="cls-21" points="831.67 461.61 831.67 514.57 840.86 514.57 877.29 514.57"/>
      <line class="cls-21" x1="841.88" y1="574.64" x2="841.88" y2="514.57"/>
      <line class="cls-21" x1="894.31" y1="574.64" x2="1259.76" y2="577.64"/>
      <polyline class="cls-21" points="1034.56 574.64 1034.56 461.61 894.8 461.61 897.2 196.93 897.2 138.21"/>
      <line class="cls-21" x1="1034.56" y1="461.3" x2="1034.56" y2="138.21"/>
      <line class="cls-21" x1="895.89" y1="341.96" x2="1034.56" y2="341.96"/>
      <line class="cls-21" x1="1034.56" y1="229.61" x2="896.88" y2="229.61"/>
      <polyline class="cls-21" points="731.76 138.21 731.76 229.61 858.9 229.61 858.9 195.4 897.2 195.4"/>
      <polyline class="cls-21" points="465.71 189.78 631.16 191.83 731.76 191.83"/>
      <line class="cls-21" x1="631.16" y1="298.81" x2="465.71" y2="298.81"/>
      <polyline class="cls-21" points="631.16 246.98 646.48 246.98 646.48 211.74 633.71 211.74"/>
      <polyline class="cls-21" points="631.16 367.91 646.48 367.91 646.48 401.19"/>
      <path class="cls-21" d="M571.42,461.3v53.26s75.06,2.04,75.06,0v-55.15h-15.32"/>
      <line class="cls-21" x1="1392.52" y1="735.66" x2="1534.13" y2="669.17"/>
      <line class="cls-21" x1="535.16" y1="499.74" x2="571.42" y2="499.74"/>
      <polyline class="cls-21" points="1506.39 205.9 1617.66 442.91 1661.12 535.49 1548.42 586.99 1506.39 495.15 1550.56 475.03 1616.14 445.15"/>
      <polyline class="cls-21" points="1551.6 185.1 1638.49 373.96 1681.08 466.53 1789.62 415.98"/>
      <line class="cls-21" x1="1746.25" y1="322.85" x2="1638.49" y2="373.96"/>
      <line class="cls-21" x1="1550.56" y1="299.97" x2="1440.22" y2="350.42"/>
      <line class="cls-21" x1="1544.05" y1="286.12" x2="1588.64" y2="265.6"/>
      <line class="cls-21" x1="1570.22" y1="522.72" x2="1550.56" y2="475.03"/>
      <polyline class="cls-21" points="1529.22 545.03 1604.15 509.85 1640.97 492.57"/>
      <line class="cls-21" x1="1623.72" y1="552.58" x2="1604.15" y2="509.85"/>
      <polyline class="cls-21" points="591.84 969.78 591.84 935.83 625.18 935.83"/>
      <path class="cls-21" d="M69.97,1219.74v309.45h288v-309.45s-289.79,1.79-288,0Z"/>
      <polyline class="cls-21" points="252.27 1219.74 252.27 1328 252.27 1352.51"/>
      <line class="cls-21" x1="69.97" y1="1328" x2="252.27" y2="1328"/>
      <line class="cls-21" x1="69.97" y1="1412.25" x2="252.27" y2="1412.25"/>
      <line class="cls-21" x1="1461.55" y1="515.67" x2="1487.12" y2="566.38"/>
      <line class="cls-21" x1="252.27" y1="1529.19" x2="252.27" y2="1391.83"/>
      <line class="cls-21" x1="165.97" y1="1328" x2="165.97" y2="1412.25"/>
      <polyline class="cls-21" points="357.97 1399.49 284.95 1399.49 284.95 1446.47 357.97 1446.47"/>
      <polyline class="cls-21" points="357.97 1298.89 284.95 1298.89 284.95 1345.87 357.97 1345.87"/>
      <polyline class="cls-21" points="1213.8 306.72 1077.03 306.72 1034.56 306.72"/>
      <polyline class="cls-21" points="1077.03 573.27 1077.03 434.38 1077.03 309.44"/>
      <polyline class="cls-21" points="1173.46 573.27 1173.46 432.34 1078.14 432.34"/>
      <path class="cls-21" d="M1206.65,1301.44v268.09h458.04v-265.53s-415.36-2.78-455.01-2.6c-1.96,0-3.01.02-3.03.05h0Z"/>
      <line class="cls-21" x1="1664.69" y1="1415.83" x2="1206.65" y2="1412.76"/>
      <line class="cls-21" x1="1259.77" y1="1301.54" x2="1259.77" y2="1414.3"/>
      <line class="cls-21" x1="1291.93" y1="1301.7" x2="1291.93" y2="1412.76"/>
      <polyline class="cls-21" points="1206.65 1458.72 1432.86 1458.72 1432.86 1567.49"/>
      <line class="cls-21" x1="1435.67" y1="1473.53" x2="1479.33" y2="1473.53"/>
      <polyline class="cls-21" points="1479.33 1569.53 1479.33 1458.72 1664.69 1458.72"/>
      <line class="cls-21" x1="1250.05" y1="1458.72" x2="1250.05" y2="1567.49"/>
      <line class="cls-21" x1="1469.88" y1="824.73" x2="1469.88" y2="867.4"/>
      <line class="cls-21" x1="631.16" y1="398.49" x2="646.48" y2="398.49"/>
    </g>
  </g>
  <g id="Icons1_and_text" data-name="Icons1 and text">
    <text class="cls-8" transform="translate(676.98 1087.9)"><tspan x="0" y="0">Ingang</tspan></text>
    <text class="cls-3" transform="translate(696.09 746.45)"><tspan class="cls-18" x="0" y="0">A</tspan><tspan x="44.69" y="0">ula</tspan></text>
    <text class="cls-11" transform="translate(535.12 923.63)"><tspan class="cls-28" x="0" y="0">W</tspan><tspan x="20.09" y="0">C</tspan></text>
    <text class="cls-11" transform="translate(266.53 908.8)"><tspan class="cls-28" x="0" y="0">W</tspan><tspan x="20.09" y="0">C</tspan></text>
    <text class="cls-11" transform="translate(315.55 908.8)"><tspan class="cls-28" x="0" y="0">W</tspan><tspan x="20.09" y="0">C</tspan></text>
    <text class="cls-11" transform="translate(1438.7 1528.77)"><tspan class="cls-28" x="0" y="0">W</tspan><tspan x="20.09" y="0">C</tspan></text>
    <text class="cls-11" transform="translate(583.65 923.63)"><tspan class="cls-28" x="0" y="0">W</tspan><tspan x="20.09" y="0">C</tspan></text>
    <text class="cls-2" transform="translate(598.19 957.64)"><tspan x="0" y="0">LI</tspan><tspan class="cls-34" x="8.83" y="0">F</tspan><tspan x="15.32" y="0">T</tspan></text>
    <text/>
    <line class="cls-21" x1="1529.22" y1="867.4" x2="1529.22" y2="989.95"/>
    <text class="cls-7" transform="translate(1478.93 927.95)"><tspan class="cls-32" x="0" y="0">T</tspan><tspan class="cls-24" x="10.9" y="0">r</tspan><tspan x="17.76" y="0">ap</tspan></text>
    <polyline class="cls-22" points="1482.02 970.74 1482.02 961.38 1495.3 961.38 1495.3 950.83 1507.55 950.83 1507.55 942.59 1521 942.59"/>
    <text class="cls-7" transform="translate(1211.97 1345.33)"><tspan class="cls-32" x="0" y="0">T</tspan><tspan class="cls-24" x="10.9" y="0">r</tspan><tspan x="17.76" y="0">ap</tspan></text>
    <polyline class="cls-22" points="1215.06 1388.12 1215.06 1378.76 1228.34 1378.76 1228.34 1368.21 1240.59 1368.21 1240.59 1359.97 1254.04 1359.97"/>
    <text class="cls-9" transform="translate(276.12 1097.56)"><tspan class="cls-38" x="0" y="0">T</tspan><tspan class="cls-30" x="8.84" y="0">r</tspan><tspan x="14.4" y="0">ap</tspan></text>
    <polyline class="cls-22" points="278.62 1132.25 278.62 1124.66 289.38 1124.66 289.38 1116.11 299.32 1116.11 299.32 1109.43 310.22 1109.43"/>
    <text class="cls-9" transform="translate(289 621.46)"><tspan class="cls-38" x="0" y="0">T</tspan><tspan class="cls-30" x="8.84" y="0">r</tspan><tspan x="14.4" y="0">ap</tspan></text>
    <polyline class="cls-22" points="291.5 656.15 291.5 648.56 302.26 648.56 302.26 640 312.2 640 312.2 633.33 323.1 633.33"/>
    <text class="cls-5" transform="translate(668 157.14)"><tspan class="cls-33" x="0" y="0">T</tspan><tspan class="cls-16" x="7.99" y="0">r</tspan><tspan class="cls-25" x="13.02" y="0">ap</tspan></text>
    <polyline class="cls-22" points="670.26 186.01 670.26 179.15 679.99 179.15 679.99 171.42 688.97 171.42 688.97 165.38 698.82 165.38"/>
    <text class="cls-13" transform="translate(1565.04 542.87)"><tspan class="cls-37" x="0" y="0">T</tspan><tspan class="cls-36" x="7.62" y="0">r</tspan><tspan x="12.42" y="0">ap</tspan></text>
    <polyline class="cls-22" points="1567.2 572.78 1567.2 566.23 1576.48 566.23 1576.48 558.86 1585.04 558.86 1585.04 553.1 1594.44 553.1"/>
    <text class="cls-12" transform="translate(1537.65 231.05)"><tspan class="cls-19" x="0" y="0">T</tspan><tspan class="cls-29" x="7.44" y="0">r</tspan><tspan class="cls-23" x="12.12" y="0">ap</tspan></text>
    <polyline class="cls-22" points="1539.76 260.23 1539.76 253.85 1548.81 253.85 1548.81 246.65 1557.17 246.65 1557.17 241.03 1566.35 241.03"/>
    <g>
      <text class="cls-1" transform="translate(706.19 933.69)"><tspan class="cls-32" x="0" y="0">T</tspan><tspan class="cls-24" x="10.9" y="0">r</tspan><tspan x="17.76" y="0">ap</tspan></text>
      <polyline class="cls-20" points="709.28 976.48 709.28 967.12 722.55 967.12 722.55 956.56 734.81 956.56 734.81 948.32 748.26 948.32"/>
    </g>
    <text class="cls-4" transform="translate(1616.48 643.78)"><tspan class="cls-27" x="0" y="0">W</tspan><tspan x="23.39" y="0">C</tspan></text>
    <text class="cls-10" transform="translate(1618.6 529.08)"><tspan x="0" y="0">Lift</tspan></text>
    <text class="cls-6" transform="translate(838.59 1087.77)"><tspan class="cls-26" x="0" y="0">R</tspan><tspan class="cls-15" x="14.97" y="0">ece</tspan><tspan class="cls-17" x="57.47" y="0">p</tspan><tspan x="72.54" y="0">tie</tspan></text>
  </g>
</svg>