<?xml version="1.0" encoding="UTF-8"?>
<svg xmlns="http://www.w3.org/2000/svg" viewBox="0 0 2050.723 1704.1">
  <defs>
    <style>
      .cls-1 {
        font-size: 20.302px;
      }

      .cls-1, .cls-2, .cls-3 {
        font-family: Aeonik-Medium, Aeonik;
        font-weight: 500;
      }

      .cls-1, .cls-4 {
        fill: #828282;
      }

      .cls-2 {
        font-size: 18.556px;
      }

      .cls-2, .cls-3 {
        fill: #fff;
      }

      .cls-5 {
        letter-spacing: -.055em;
      }

      .cls-6 {
        stroke: #828282;
      }

      .cls-6, .cls-7, .cls-8 {
        fill: none;
        stroke-miterlimit: 10;
      }

      .cls-6, .cls-8 {
        stroke-width: 3px;
      }

      .cls-3 {
        font-size: 12.431px;
      }

      .cls-9 {
        letter-spacing: -.016em;
      }

      .cls-10 {
        letter-spacing: 0em;
      }

      .cls-11 {
        letter-spacing: -.016em;
      }

      .cls-7 {
        stroke: #ff00e6;
        stroke-width: 6px;
      }

      .cls-12 {
        fill: #d3d3d3;
      }

      .cls-13 {
        letter-spacing: -.055em;
      }

      .cls-8 {
        stroke: #fff;
      }

      .cls-14 {
        fill: #353535;
      }
    </style>
  </defs>
  <g id="Laag_10" data-name="Laag 10">
    <rect class="cls-14" x="-6.342" y="-.863" width="2056.783" height="1703.362"/>
  </g>
  <g id="Floor_3" data-name="Floor 3">
    <path class="cls-12" d="M1567.073,1188.383v35.404h-229.447v26.137h-25.191v-23.414h-53.106v23.414h-22.367v-23.565h-281.122v27.3h-27.83v-19.183h-46.979v32.545h-27.83v-44.426h-499.404v102.894h-44.426v-50.298h4.34v-97.277h-13.814v-22.894h7.686v-55.83h-11.234v-48.681h12.383v-76.936h-8.809v-24.426h13.787v-178.468h30.553v29.277h39.83v18.383h-38.128v53.447h19.064v25.668h-12.596v51.694h12.596v50.979h-12.596v101.106h12.596v49.498h-12.596v21.651h494.298v15.423s720.94,1.177,720.34.577Z"/>
    <polygon class="cls-12" points="1748.307 894 1789.353 874.896 1610.69 497.755 1569.839 517.107 1684.733 763.881 1659.942 778.985 1677.12 823.278 1708.132 810.662 1748.307 894"/>
    <polygon class="cls-4" points="344.265 770.681 344.265 799.958 384.094 799.958 384.094 818.341 344.265 822.468 345.967 871.787 363.456 876.221 363.456 900.936 348.988 900.936 352.435 949.149 365.031 949.149 365.031 1000.128 352.435 1000.128 352.435 1101.234 365.031 1101.234 365.031 1150.732 348.988 1154.213 352.435 1172.383 438.35 1173.617 438.35 770.681 344.265 770.681"/>
    <polygon class="cls-4" points="313.711 770.681 313.711 949.149 299.924 949.149 299.924 973.575 308.733 973.575 308.733 1050.511 296.35 1050.511 296.35 1099.192 303.456 1100.426 307.584 1155.021 296.307 1156.256 296.307 1179.149 313.711 1177.915 313.711 1275.192 309.371 1275.192 309.371 1325.49 353.797 1325.49 353.797 1222.596 440.052 1226.009 440.052 1382.639 214.861 1382.639 214.861 771.915 313.711 770.681"/>
    <path class="cls-4" d="M644.307,1225.021v157.617h309.957v-105.702h204.766v107.745h304.34v-112.851h206.809v-174.128h-970.468v-23.489h-57.106v98.17h204.127v15.423h720.34v35.981h-229.447v26.137h-25.191v-20.478h-54.681v20.478h-22.809v-22.18h-279.107v27.149h-27.83v-20.417h-46.979v32.545h-27.83v-44.426s-207.969,3.35-208.893,2.426Z"/>
    <polygon class="cls-4" points="1436.563 501.787 1687.031 1038.724 1932.903 920.766 1690.095 383.83 1625.773 413.574 1583.171 433.274 1789.353 874.896 1748.307 894 1708.132 810.662 1677.12 823.278 1659.942 778.985 1689.156 764.919 1571.241 520.117 1540.265 453.539 1527.94 459.273 1436.563 501.787"/>
    <polygon class="cls-4" points="1555.515 521.838 1623.005 491.2 1593.92 428.303 1527.94 459.273 1555.515 521.838"/>
    <g id="Laag_14" data-name="Laag 14">
      <rect class="cls-12" x="699.712" y="1097.702" width="143.463" height="75.234"/>
    </g>
  </g>
  <g id="All_floors" data-name="All floors">
    <path class="cls-7" d="M214.861,771.915v610.723h225.191v-158.809h204.255v158.809h309.957v-105.702h204.766v107.745h305.362v-112.851h205.787v-174.128h-970.468v-23.489h-57.106v99.404h-204.255v-401.702h-223.489Z"/>
    <polyline class="cls-7" points="363.456 873.021 363.456 900.936 382.18 900.936 382.18 948.936 363.456 948.936 363.456 975.149 363.456 1001.362 350.861 1001.362 350.861 1102.468 383.541 1102.468 383.541 1001.021 363.456 1001.362"/>
    <line class="cls-7" x1="363.456" y1="974.809" x2="438.35" y2="974.809"/>
    <line class="cls-7" x1="438.35" y1="923.064" x2="383.541" y2="923.064"/>
    <line class="cls-7" x1="383.541" y1="1078.298" x2="438.35" y2="1078.298"/>
    <polyline class="cls-7" points="363.456 1100.426 363.456 1154.213 393.414 1154.213 393.414 1173.617 438.35 1173.617 438.35 1222.979"/>
    <polyline class="cls-7" points="393.414 1173.617 350.861 1173.617 350.861 1154.213 363.456 1154.213"/>
    <line class="cls-7" x1="363.456" y1="1128.596" x2="438.35" y2="1128.596"/>
    <line class="cls-7" x1="382.52" y1="819.575" x2="438.35" y2="819.575"/>
    <polyline class="cls-7" points="342.69 771.915 342.69 801.192 344.393 801.192 382.52 801.192 382.52 819.575 344.393 819.575 344.393 873.021 362.435 873.021 438.35 873.021"/>
    <polyline class="cls-7" points="363.456 900.936 348.988 900.936 348.988 948.936 363.456 948.936"/>
    <polyline class="cls-7" points="396.988 771.915 396.988 801.192 385.584 801.192"/>
    <polyline class="cls-7" points="440.052 1223.83 352.222 1223.83 352.222 1326.724 440.052 1326.724"/>
    <line class="cls-7" x1="440.052" y1="1280" x2="352.222" y2="1280"/>
    <line class="cls-7" x1="376.988" y1="1326.724" x2="376.988" y2="1382.639"/>
    <polyline class="cls-7" points="352.222 1326.724 273.073 1326.724 215.882 1326.724"/>
    <line class="cls-7" x1="274.095" y1="1382.639" x2="274.095" y2="1326.724"/>
    <polyline class="cls-7" points="307.797 1326.724 307.797 1276.426 312.137 1276.426 312.137 1179.149 296.307 1179.149 296.307 1156.17 306.01 1156.17 306.01 1100.426 294.776 1100.426 295.541 1051.745 307.158 1051.745 307.797 974.809 298.35 974.809 298.35 950.383 312.137 950.383 312.137 873.021 312.137 771.915"/>
    <line class="cls-7" x1="214.861" y1="873.021" x2="312.137" y2="873.021"/>
    <line class="cls-7" x1="214.861" y1="910.809" x2="312.137" y2="910.809"/>
    <line class="cls-7" x1="214.861" y1="950.383" x2="298.35" y2="950.383"/>
    <polyline class="cls-7" points="298.35 974.809 275.371 974.809 275.371 1051.745 292.988 1051.745"/>
    <line class="cls-7" x1="214.861" y1="1078.298" x2="294.776" y2="1078.298"/>
    <line class="cls-7" x1="275.371" y1="1022.979" x2="214.861" y2="1022.979"/>
    <polyline class="cls-7" points="294.776 1100.426 275.371 1100.426 275.371 1122.043 275.371 1156.256 296.307 1156.256"/>
    <line class="cls-7" x1="214.861" y1="1121.021" x2="275.371" y2="1121.021"/>
    <line class="cls-7" x1="296.307" y1="1179.149" x2="214.861" y2="1179.149"/>
    <line class="cls-7" x1="214.861" y1="1275.277" x2="312.137" y2="1275.277"/>
    <line class="cls-7" x1="642.605" y1="1173.617" x2="642.605" y2="1221.787"/>
    <polyline class="cls-7" points="699.712 1097.702 699.712 1172.936 642.605 1172.936"/>
    <polyline class="cls-7" points="644.307 1223.83 851.627 1223.83 851.627 1275.745 810.435 1275.745 810.456 1223.83"/>
    <line class="cls-7" x1="811.456" y1="1382.639" x2="811.456" y2="1275.745"/>
    <polyline class="cls-7" points="851.627 1268.256 878.69 1268.256 878.69 1234.043 926.435 1234.043 926.435 1275.745 878.924 1275.745 878.69 1268.256"/>
    <line class="cls-7" x1="879.456" y1="1382.639" x2="879.456" y2="1273.873"/>
    <line class="cls-7" x1="926.435" y1="1254.894" x2="952.733" y2="1254.894"/>
    <polyline class="cls-7" points="954.265 1276.936 954.265 1227.745 1159.371 1227.745 1234.946 1227.745 1234.946 1276.936 1159.031 1276.936"/>
    <line class="cls-7" x1="1159.371" y1="1274.724" x2="1159.371" y2="1227.745"/>
    <line class="cls-7" x1="1234.946" y1="1251.234" x2="1257.754" y2="1251.234"/>
    <path class="cls-7" d="M1257.754,1227.745v46.979h53.106v-46.979s-52.766-.34-53.106,0Z"/>
    <path class="cls-7" d="M845.158,1097.702v91.915s718.809-1.532,720.34,0v35.404h-229.447v49.702h65.021"/>
    <line class="cls-7" x1="699.712" y1="1172.936" x2="845.158" y2="1172.936"/>
    <line class="cls-7" x1="1030.605" y1="1097.702" x2="1030.605" y2="1189.278"/>
    <polyline class="cls-7" points="902.435 1097.702 902.435 1134.213 902.435 1189.278"/>
    <line class="cls-7" x1="845.158" y1="1134.979" x2="902.435" y2="1134.979"/>
    <line class="cls-7" x1="1159.371" y1="1097.702" x2="1159.371" y2="1189.092"/>
    <polyline class="cls-7" points="1207.032 1189.04 1207.032 1133.787 1207.032 1097.702"/>
    <line class="cls-7" x1="1159.371" y1="1133.787" x2="1207.032" y2="1133.787"/>
    <line class="cls-7" x1="1336.393" y1="1097.702" x2="1336.393" y2="1186.894"/>
    <line class="cls-7" x1="1463.371" y1="1097.702" x2="1463.371" y2="1186.894"/>
    <path class="cls-7" d="M1618.946,1097.702v91.915s-53.447-1.021-53.447,0v-91.915"/>
    <line class="cls-7" x1="1512.393" y1="1097.702" x2="1512.393" y2="1186.894"/>
    <line class="cls-7" x1="1565.499" y1="1225.021" x2="1565.499" y2="1271.83"/>
    <line class="cls-7" x1="1401.754" y1="1384.681" x2="1401.754" y2="1225.021"/>
    <line class="cls-7" x1="1310.861" y1="1251.159" x2="1336.052" y2="1251.159"/>
    <line class="cls-7" x1="1286.69" y1="1274.724" x2="1286.69" y2="1382.639"/>
    <polygon class="cls-7" points="1436.563 501.787 1687.031 1038.724 1932.903 920.766 1690.095 383.83 1539.73 453.788 1436.563 501.787"/>
    <polyline class="cls-7" points="1583.823 433.274 1613.257 496.538 1569.839 517.107 1539.73 453.788"/>
    <polyline class="cls-7" points="1569.839 517.107 1689.329 765.277 1582.681 815.025"/>
    <polyline class="cls-7" points="1602.72 857.984 1707.403 809.151 1728.056 851.992 1748.307 894 1789.669 875.575 1613.257 496.538"/>
    <line class="cls-7" x1="1623.005" y1="901.47" x2="1728.056" y2="851.992"/>
    <polyline class="cls-7" points="1780.869 855.517 1846.99 823.278 1837.924 801.799 1870.923 785.705"/>
    <line class="cls-7" x1="1750.189" y1="790.747" x2="1853.069" y2="744.224"/>
    <line class="cls-7" x1="1708.132" y1="700.384" x2="1812.003" y2="653.413"/>
    <line class="cls-7" x1="1667.1" y1="612.225" x2="1771.421" y2="563.672"/>
    <line class="cls-7" x1="1626.958" y1="525.975" x2="1732.22" y2="476.984"/>
    <line class="cls-7" x1="1583.171" y1="544.796" x2="1480.257" y2="595.456"/>
    <line class="cls-7" x1="1625.773" y1="633.277" x2="1520.752" y2="682.267"/>
    <polyline class="cls-7" points="1562.571 771.915 1636.987 737.703 1668.7 722.433"/>
    <line class="cls-7" x1="1642.215" y1="942.65" x2="1748.307" y2="894"/>
  </g>
  <g id="Icons1_and_text" data-name="Icons1 and text">
    <text class="cls-3" transform="translate(1565.657 466.436)"><tspan class="cls-5" x="0" y="0">T</tspan><tspan class="cls-11" x="6.676" y="0">r</tspan><tspan class="cls-10" x="10.878" y="0">ap</tspan></text>
    <polyline class="cls-8" points="1567.548 492.638 1567.548 486.906 1575.678 486.906 1575.678 480.444 1583.182 480.444 1583.182 475.399 1591.416 475.399"/>
    <text class="cls-3" transform="translate(1602.553 767.486)"><tspan class="cls-5" x="0" y="0">T</tspan><tspan class="cls-11" x="6.676" y="0">r</tspan><tspan class="cls-10" x="10.878" y="0">ap</tspan></text>
    <polyline class="cls-8" points="1604.444 793.687 1604.444 787.955 1612.574 787.955 1612.574 781.493 1620.078 781.493 1620.078 776.448 1628.312 776.448"/>
    <g>
      <text class="cls-1" transform="translate(751.401 1122.096)"><tspan class="cls-13" x="0" y="0">T</tspan><tspan class="cls-9" x="10.902" y="0">r</tspan><tspan x="17.765" y="0">ap</tspan></text>
      <polyline class="cls-6" points="754.49 1164.885 754.49 1155.523 767.767 1155.523 767.767 1144.97 780.022 1144.97 780.022 1136.731 793.469 1136.731"/>
    </g>
    <text class="cls-2" transform="translate(1652.278 761.121)"><tspan x="0" y="0">Lift</tspan></text>
  </g>
</svg>