<?xml version="1.0" encoding="UTF-8"?>
<svg xmlns="http://www.w3.org/2000/svg" viewBox="0 0 2050.72 1704.1">
  <defs>
    <style>
      .cls-1, .cls-2, .cls-3, .cls-4, .cls-5, .cls-6, .cls-7, .cls-8, .cls-9 {
        font-family: Aeonik-Medium, Aeonik;
        font-weight: 500;
      }

      .cls-1, .cls-7 {
        font-size: 20.3px;
      }

      .cls-1, .cls-10 {
        fill: #828282;
      }

      .cls-2 {
        font-size: 18.56px;
      }

      .cls-2, .cls-3, .cls-4, .cls-5, .cls-6, .cls-7, .cls-8, .cls-9 {
        fill: #fff;
      }

      .cls-11 {
        letter-spacing: 0em;
      }

      .cls-3 {
        font-size: 13.93px;
      }

      .cls-4 {
        font-size: 19.45px;
      }

      .cls-12 {
        letter-spacing: -.05em;
      }

      .cls-5 {
        font-size: 14.93px;
      }

      .cls-13 {
        stroke: #828282;
      }

      .cls-13, .cls-14, .cls-15 {
        fill: none;
        stroke-miterlimit: 10;
      }

      .cls-13, .cls-15 {
        stroke-width: 3px;
      }

      .cls-6 {
        font-size: 12.43px;
      }

      .cls-16 {
        letter-spacing: -.06em;
      }

      .cls-17 {
        letter-spacing: -.06em;
      }

      .cls-18 {
        letter-spacing: -.02em;
      }

      .cls-8 {
        font-size: 19.95px;
      }

      .cls-19 {
        letter-spacing: 0em;
      }

      .cls-20 {
        letter-spacing: -.02em;
      }

      .cls-14 {
        stroke: #ff00e6;
        stroke-width: 6px;
      }

      .cls-21 {
        letter-spacing: -.03em;
      }

      .cls-22 {
        fill: #d3d3d3;
      }

      .cls-23 {
        letter-spacing: -.05em;
      }

      .cls-15 {
        stroke: #fff;
      }

      .cls-24 {
        letter-spacing: -.05em;
      }

      .cls-9 {
        font-size: 21.01px;
      }

      .cls-25 {
        fill: #353535;
      }

      .cls-26 {
        letter-spacing: -.02em;
      }

      .cls-27 {
        letter-spacing: -.02em;
      }

      .cls-28 {
        letter-spacing: -.02em;
      }
    </style>
  </defs>
  <g id="Laag_10" data-name="Laag 10">
    <rect class="cls-25" y="-13.52" width="2049.38" height="1722.12"/>
  </g>
  <g id="Floor_2" data-name="Floor 2">
    <polygon class="cls-10" points="283.69 591.51 283.69 973.33 375.77 973.33 375.77 644.82 371.26 644.82 371.26 588.82 283.69 588.82 283.69 591.51"/>
    <path class="cls-10" d="M273.47,529.72v38.67h56.26v20.43h38.44v-59.1s-94.7,2.01-94.7,0Z"/>
    <path class="cls-10" d="M237.73,529.72v659.61h-95.49v-661.62s95.49,1.5,95.49,2.01Z"/>
    <path class="cls-10" d="M278.07,1024.01v54.51h8.68v56.99h-8.68v50.38h97.7v-160.31s-98.33-2.2-97.7-1.57Z"/>
    <path class="cls-10" d="M592.96,1024.01v163.28h341.51v-163.28s-344.01-2.5-341.51,0Z"/>
    <polygon class="cls-10" points="1307.18 1024.01 1309.02 1051.42 1331.69 1051.42 1331.69 1024.01 1665.98 1024.01 1665.98 1039.71 1691.77 1039.71 1691.77 1077.25 1468.62 1077.25 1468.62 1187.29 1143.43 1187.29 1143.43 1072.91 934.47 1072.91 934.47 1024.01 1307.18 1024.01"/>
    <polygon class="cls-10" points="1691.77 860.74 1691.77 981.25 1602.38 981.25 1602.38 901.84 1578.67 901.84 1578.67 981.25 816.96 981.25 816.96 887.71 1520.96 887.71 1520.96 860.74 1691.77 860.74"/>
    <polygon class="cls-10" points="1618.59 652.05 1635.76 689.78 1735.88 642.74 1716.05 601.82 1618.59 652.05"/>
    <polygon class="cls-10" points="1591.94 599.54 1697.13 550.52 1592.76 314.93 1629.22 298.78 1719.24 489.96 1823.77 440.74 1699.18 170.61 1445.46 289.81 1591.94 599.54"/>
    <polygon class="cls-10" points="592.28 864.19 592.28 977.55 658.49 979.46 660.43 863.37 592.28 864.19"/>
    <polygon class="cls-10" points="428.2 593.3 429.56 665.25 641.11 665.25 641.11 862.86 761.13 863.03 761.13 588.82 432 588.82 428.2 593.3"/>
    <path class="cls-10" d="M818.58,863.37h112.43V107.98h-447.69l-3,388.42,1,40.34h177.18v-96h-31.15v-161.36h44.94v-114.38h116.43v275.74h-41.87v56.45h41.87v56.91h29.87s2.11,307.17,0,309.28Z"/>
    <polygon class="cls-10" points="340.11 496.39 341.62 524.99 371.26 527.71 371.26 538.91 492.77 536.74 497.36 496.39 340.11 496.39"/>
    <g id="Laag_11" data-name="Laag 11">
      <polygon class="cls-22" points="237.73 1187.63 278.07 1189.33 278.07 1139.94 283.69 1139.94 286.75 1121.21 286.75 1080.39 278.07 1078.52 279.49 1024.01 375.77 1023.9 375.77 974.86 283.69 973.33 283.69 587.08 325.56 588.82 327.09 570.4 273.47 565.98 271.66 527.71 237.73 527.71 237.73 1187.63"/>
      <polygon class="cls-22" points="377.87 973.33 377.87 1024.01 1307.18 1024.01 1307.18 1047.51 1331.69 1047.51 1331.69 1024.01 1665.98 1024.01 1665.98 1039.71 1691.77 1039.71 1691.77 982.66 1602.38 982.66 1602.38 904.02 1579.52 904.02 1579.52 978.91 816.96 978.91 816.96 863.03 660.43 863.03 660.43 981.25 594.67 981.25 586.74 973.32 377.87 973.33"/>
      <polyline class="cls-22" points="371.26 644.82 428.2 644.82 428.2 588.82 761.13 588.82 761.13 858.52 818.58 858.52 818.58 554.1 788.71 554.1 788.71 497.18 746.84 497.18 746.84 440.74 788.71 440.74 788.71 164.99 672.28 164.99 672.28 279.37 627.35 279.37 627.35 440.74 658.49 440.74 658.49 536.74 371.26 536.74 371.26 644.82"/>
      <polyline class="cls-22" points="1520.96 860.74 1579.52 860.74 1579.52 836.48 1681.3 790.52 1618.59 652.05 1716.05 601.82 1735.88 642.74 1778.32 623.03 1629.22 298.78 1592.76 314.93 1697.13 550.52 1591.94 599.54 1576.11 567.01 1535.4 586.04 1623.83 775.59 1520.96 823.03 1519.96 860.74"/>
      <polygon class="cls-10" points="1266.15 1301.39 1266.15 1412.76 1724.2 1412.76 1724.2 1304.87 1266.15 1301.39"/>
      <polygon class="cls-10" points="1266.15 1458.72 1266.15 1569.53 1724.2 1569.53 1724.2 1458.72 1517.01 1458.72 1515.69 1486.98 1495.18 1486.98 1492.37 1458.72 1266.15 1458.72"/>
      <polygon class="cls-22" points="1266.15 1412.76 1266.15 1458.72 1492.37 1458.72 1492.37 1486.98 1515.69 1486.98 1517.01 1458.72 1724.2 1458.72 1724.2 1415.83 1266.15 1412.76"/>
    </g>
    <text class="cls-8" transform="translate(624.2 968.23)"><tspan x="0" y="0">Lift</tspan></text>
  </g>
  <g id="All_floors" data-name="All floors">
    <path class="cls-14" d="M1266.15,1301.44v268.09h458.04v-265.53s-457.53-3.06-458.04-2.55Z"/>
    <line class="cls-14" x1="1724.2" y1="1415.83" x2="1266.15" y2="1412.76"/>
    <line class="cls-14" x1="1319.27" y1="1301.54" x2="1319.27" y2="1414.3"/>
    <line class="cls-14" x1="1351.44" y1="1301.7" x2="1351.44" y2="1412.76"/>
    <polyline class="cls-14" points="1266.15 1458.72 1492.37 1458.72 1492.37 1567.49"/>
    <line class="cls-14" x1="1495.18" y1="1486.98" x2="1538.84" y2="1486.98"/>
    <polyline class="cls-14" points="1538.84 1569.53 1538.84 1458.72 1724.2 1458.72"/>
    <line class="cls-14" x1="1309.56" y1="1458.72" x2="1309.56" y2="1567.49"/>
    <polyline class="cls-14" points="1538.84 1458.72 1515.69 1458.72 1515.69 1486.98"/>
    <polyline class="cls-14" points="1143.43 1187.29 1468.62 1187.29 1468.62 1077.25 1691.77 1077.25 1691.77 860.74 1520.96 860.74 1520.96 888.05 1520.96 981.25 816.96 981.25 816.96 887.71 1519.96 888.05"/>
    <polyline class="cls-14" points="816.96 887.71 816.96 863.37 931.01 863.37 931.01 106.65 479.77 106.65 479.77 496.39 340.11 496.39 340.11 527.42"/>
    <path class="cls-14" d="M142.41,527.71h228.85v116.94h4.51v544.68h-233.53s.09-661.7.17-661.62Z"/>
    <polyline class="cls-14" points="375.77 644.82 429.56 644.82 429.56 665.25 644.37 665.25 644.37 862.86 592.28 862.86 592.28 973.33 375.77 973.33 283.69 973.33 283.69 588.82 327.09 588.82 327.09 568.39 273.47 568.39 273.47 527.71"/>
    <polyline class="cls-14" points="375.77 1024.01 592.96 1024.01 592.96 1189.33 931.01 1189.33 931.01 1024.01 661.39 1024.01 592.96 1024.01"/>
    <polyline class="cls-14" points="592.96 1124.65 663.77 1124.65 663.77 1024.01"/>
    <line class="cls-14" x1="842.84" y1="1024.01" x2="842.84" y2="1189.33"/>
    <polyline class="cls-14" points="592.28 973.33 592.28 979.46 658.49 979.46 658.49 863.03 635.56 863.03"/>
    <line class="cls-14" x1="655.94" y1="863.03" x2="818.58" y2="863.03"/>
    <polyline class="cls-14" points="761.13 863.03 761.13 588.82 428.2 588.82 428.2 644.82"/>
    <polyline class="cls-14" points="371.26 536.74 658.49 536.74 658.49 497.18 479.77 497.18"/>
    <polyline class="cls-14" points="627.35 497.18 627.35 442.78 627.35 279.37 672.28 279.37 672.28 106.65"/>
    <path class="cls-14" d="M627.35,440.74h31.15v56.45h130.21v56.91s29.87-.51,29.87,0v309.28"/>
    <polyline class="cls-14" points="627.35 106.65 627.35 220.43 627.35 279.37 479.77 279.37 479.77 384.05 625.3 384.05"/>
    <line class="cls-14" x1="672.28" y1="220.43" x2="627.35" y2="220.43"/>
    <line class="cls-14" x1="627.35" y1="182.35" x2="672.28" y2="182.35"/>
    <line class="cls-14" x1="931.01" y1="586.27" x2="818.58" y2="586.27"/>
    <line class="cls-14" x1="818.58" y1="554.1" x2="931.01" y2="554.1"/>
    <polyline class="cls-14" points="746.84 497.18 746.84 440.74 931.01 440.74"/>
    <polyline class="cls-14" points="788.71 497.18 788.71 164.99 672.28 164.99"/>
    <line class="cls-14" x1="788.71" y1="106.65" x2="788.71" y2="164.99"/>
    <line class="cls-14" x1="788.71" y1="220.43" x2="931.01" y2="220.43"/>
    <line class="cls-14" x1="931.01" y1="331.09" x2="788.71" y2="331.09"/>
    <polyline class="cls-14" points="931.01 1024.01 1143.43 1024.01 1143.43 1189.33"/>
    <line class="cls-14" x1="931.01" y1="1072.91" x2="1143.43" y2="1072.91"/>
    <line class="cls-14" x1="979.69" y1="1024.01" x2="979.69" y2="1072.91"/>
    <line class="cls-14" x1="1005.22" y1="887.81" x2="1005.22" y2="981.25"/>
    <line class="cls-14" x1="1143.43" y1="886.69" x2="1143.43" y2="981.25"/>
    <line class="cls-14" x1="1253.05" y1="887.93" x2="1253.05" y2="981.25"/>
    <line class="cls-14" x1="1386.15" y1="887.99" x2="1386.15" y2="981.25"/>
    <polyline class="cls-14" points="1520.96 860.74 1520.96 823.03 1623.6 774.69 1535.26 585.76 1576.11 567.88 1444.88 288.57 1699.18 170.61 1823.77 440.74 1718.58 490.27 1778.32 623.03 1736.45 643.97 1716.54 601.59 1617.47 649.59 1681.3 790.52 1580.2 836.48 1580.2 860.74"/>
    <line class="cls-14" x1="1634.32" y1="690.44" x2="1736.45" y2="643.97"/>
    <polyline class="cls-14" points="1576.11 567.88 1591.94 599.54 1697.13 550.52 1588.88 316.65 1629.22 298.78 1676.06 399.16 1718.58 490.27"/>
    <line class="cls-14" x1="1781.11" y1="348.24" x2="1676.06" y2="399.16"/>
    <line class="cls-14" x1="1740.06" y1="259.25" x2="1634.32" y2="309.72"/>
    <line class="cls-14" x1="1591.77" y1="220.43" x2="1629.22" y2="298.78"/>
    <line class="cls-14" x1="1550.19" y1="239.72" x2="1588.88" y2="316.65"/>
    <line class="cls-14" x1="1594.36" y1="328.5" x2="1487.28" y2="378.81"/>
    <line class="cls-14" x1="1528.91" y1="467.42" x2="1635.77" y2="417.96"/>
    <polyline class="cls-14" points="1572.03 559.2 1647.35 524.34 1678.37 509.98"/>
    <line class="cls-14" x1="1661.76" y1="567.01" x2="1643.78" y2="528.41"/>
    <line class="cls-14" x1="1688.38" y1="615.23" x2="1665.17" y2="565.42"/>
    <polyline class="cls-14" points="1520.96 981.25 1578.67 981.25 1578.67 901.84 1601.13 901.84 1601.13 981.25 1634.32 981.25 1634.32 860.74"/>
    <line class="cls-14" x1="1691.77" y1="981.25" x2="1634.32" y2="981.25"/>
    <line class="cls-14" x1="325.56" y1="524.99" x2="325.56" y2="568.39"/>
    <line class="cls-14" x1="327.09" y1="588.82" x2="371.26" y2="588.82"/>
    <line class="cls-14" x1="283.69" y1="754.27" x2="375.77" y2="754.27"/>
    <line class="cls-14" x1="283.69" y1="863.03" x2="375.77" y2="863.03"/>
    <polyline class="cls-14" points="278.07 1189.33 278.07 1137.76 286.75 1137.76 286.75 1078.52 278.07 1078.52 278.07 1024.01 375.77 1024.01"/>
    <line class="cls-14" x1="375.77" y1="1078.52" x2="286.75" y2="1078.52"/>
    <line class="cls-14" x1="375.77" y1="1137.76" x2="286.75" y2="1137.76"/>
    <polyline class="cls-14" points="237.73 1189.33 237.73 1079.54 237.73 527.71"/>
    <line class="cls-14" x1="197.39" y1="1187.63" x2="197.39" y2="1080.39"/>
    <line class="cls-14" x1="237.73" y1="1079.54" x2="142.25" y2="1079.54"/>
    <line class="cls-14" x1="142.25" y1="1137.76" x2="197.39" y2="1137.76"/>
    <line class="cls-14" x1="237.73" y1="1147.46" x2="197.39" y2="1147.46"/>
    <polyline class="cls-14" points="237.73 1025.59 202.84 1025.59 142.24 1025.59"/>
    <path class="cls-14" d="M236.54,1059.29s-32.34.68-32.34,0v-33.7"/>
    <polyline class="cls-14" points="237.73 1008.22 204.2 1008.22 204.2 974.86"/>
    <line class="cls-14" x1="237.73" y1="974.86" x2="142.25" y2="974.86"/>
    <line class="cls-14" x1="237.73" y1="812.48" x2="142.24" y2="812.48"/>
    <line class="cls-14" x1="237.73" y1="644.31" x2="142.24" y2="644.31"/>
    <line class="cls-14" x1="283.69" y1="644.31" x2="371.26" y2="644.31"/>
    <polyline class="cls-14" points="1143.43 1024.01 1307.18 1024.01 1307.18 1049.08 1331.69 1049.08 1331.69 1024.01 1415.09 1024.01 1665.98 1024.01 1665.98 1039.71 1691.77 1039.71"/>
    <line class="cls-14" x1="1665.98" y1="1076.48" x2="1665.98" y2="1039.71"/>
    <line class="cls-14" x1="1579.52" y1="1077.25" x2="1579.52" y2="1025.59"/>
    <line class="cls-14" x1="1468.62" y1="1077.25" x2="1468.62" y2="1025.59"/>
    <polyline class="cls-14" points="1331.69 1049.08 1331.69 1074.18 1412.45 1074.18 1412.45 1025.59"/>
    <line class="cls-14" x1="1389.98" y1="1187.29" x2="1389.98" y2="1074.18"/>
    <polyline class="cls-14" points="1254.37 1024.01 1254.37 1077.25 1254.37 1187.29"/>
    <polyline class="cls-14" points="1307.18 1049.08 1307.18 1079.29 1253.39 1079.29"/>
    <line class="cls-14" x1="868.37" y1="886.69" x2="868.37" y2="979.29"/>
    <line class="cls-14" x1="655.94" y1="979.46" x2="818.58" y2="979.46"/>
    <polyline class="cls-14" points="616.97 979.46 616.97 943.51 660.43 943.51"/>
  </g>
  <g id="Icons1_and_text" data-name="Icons1 and text">
    <text class="cls-9" transform="translate(607.99 917.46)"><tspan class="cls-21" x="0" y="0">W</tspan><tspan x="20.09" y="0">C</tspan></text>
    <text class="cls-7" transform="translate(1528.71 920.98)"><tspan class="cls-23" x="0" y="0">T</tspan><tspan class="cls-18" x="10.9" y="0">r</tspan><tspan x="17.76" y="0">ap</tspan></text>
    <polyline class="cls-15" points="1531.8 963.77 1531.8 954.41 1545.07 954.41 1545.07 943.85 1557.33 943.85 1557.33 935.61 1570.77 935.61"/>
    <text class="cls-5" transform="translate(713.74 126.4)"><tspan class="cls-17" x="0" y="0">T</tspan><tspan class="cls-28" x="8.02" y="0">r</tspan><tspan class="cls-11" x="13.06" y="0">ap</tspan></text>
    <polyline class="cls-15" points="716.01 157.86 716.01 150.98 725.77 150.98 725.77 143.22 734.78 143.22 734.78 137.16 744.67 137.16"/>
    <text class="cls-5" transform="translate(312.01 606.58)"><tspan class="cls-17" x="0" y="0">T</tspan><tspan class="cls-28" x="8.02" y="0">r</tspan><tspan class="cls-11" x="13.06" y="0">ap</tspan></text>
    <polyline class="cls-15" points="314.28 638.04 314.28 631.16 324.04 631.16 324.04 623.4 333.05 623.4 333.05 617.34 342.94 617.34"/>
    <text class="cls-3" transform="translate(315.29 1098.69)"><tspan class="cls-16" x="0" y="0">T</tspan><tspan class="cls-27" x="7.48" y="0">r</tspan><tspan x="12.19" y="0">ap</tspan></text>
    <polyline class="cls-15" points="317.41 1128.05 317.41 1121.63 326.52 1121.63 326.52 1114.39 334.94 1114.39 334.94 1108.73 344.16 1108.73"/>
    <text class="cls-6" transform="translate(1579.78 260.98)"><tspan class="cls-12" x="0" y="0">T</tspan><tspan class="cls-20" x="6.68" y="0">r</tspan><tspan class="cls-19" x="10.88" y="0">ap</tspan></text>
    <polyline class="cls-15" points="1581.67 287.18 1581.67 281.45 1589.8 281.45 1589.8 274.99 1597.3 274.99 1597.3 269.94 1605.54 269.94"/>
    <text class="cls-6" transform="translate(1605.71 558.18)"><tspan class="cls-12" x="0" y="0">T</tspan><tspan class="cls-20" x="6.68" y="0">r</tspan><tspan class="cls-19" x="10.88" y="0">ap</tspan></text>
    <polyline class="cls-15" points="1607.6 584.38 1607.6 578.65 1615.73 578.65 1615.73 572.19 1623.24 572.19 1623.24 567.14 1631.47 567.14"/>
    <text class="cls-4" transform="translate(1272.54 1349.05)"><tspan class="cls-24" x="0" y="0">T</tspan><tspan class="cls-26" x="10.45" y="0">r</tspan><tspan x="17.02" y="0">ap</tspan></text>
    <polyline class="cls-15" points="1275.5 1390.05 1275.5 1381.08 1288.22 1381.08 1288.22 1370.97 1299.97 1370.97 1299.97 1363.07 1312.85 1363.07"/>
    <g>
      <text class="cls-1" transform="translate(709.63 908.48)"><tspan class="cls-23" x="0" y="0">T</tspan><tspan class="cls-18" x="10.9" y="0">r</tspan><tspan x="17.76" y="0">ap</tspan></text>
      <polyline class="cls-13" points="712.72 951.27 712.72 941.91 726 941.91 726 931.36 738.25 931.36 738.25 923.12 751.7 923.12"/>
    </g>
    <text class="cls-2" transform="translate(1657.64 544.18)"><tspan x="0" y="0">Lift</tspan></text>
  </g>
</svg>